# AST/ASF file generated using VICON BodyLanguage
# -----------------------------------------------
:version 1.10
:name VICON
:units
  mass 1.0
  length 0.45
  angle deg
:documentation
   .ast/.asf automatically generated from VICON data using
   VICON BodyBuilder and BodyLanguage model FoxedUp or BRILLIANT.MOD
:root
   order TX TY TZ RX RY RZ
   axis XYZ
   position 0 0 0  
   orientation 0 0 0 
:bonedata
  begin
     id 1 
     name lhipjoint
     direction 0.646657 -0.683706 0.338203 
     length 2.4948 
     axis 0 0 0  XYZ
  end
  begin
     id 2 
     name lfemur
     direction 0.34202 -0.939693 0  
     length 6.79491  
     axis 0 0 20  XYZ
    dof rx ry rz
    limits (-160.0 20.0)
           (-70.0 70.0)
           (-60.0 70.0)
  end
  begin
     id 3 
     name ltibia
     direction 0.34202 -0.939693 0   
     length 7.56807   
     axis 0 0 20   XYZ
    dof rx
    limits (-10.0 170.0)
  end
  begin
     id 4 
     name lfoot
     direction 0.0679796 -0.186772 0.980048   
     length 2.53018   
     axis -90 7.62852e-016 20   XYZ
    dof rx rz
    limits (-45.0 90.0)
           (-70.0 20.0)
  end
  begin
     id 5 
     name ltoes
     direction 1.53625e-011 -4.21881e-011 1   
     length 1.26912   
     axis -90 7.62852e-016 20   XYZ
    dof rx
    limits (-90.0 20.0)
  end
  begin
     id 6 
     name rhipjoint
     direction -0.618868 -0.704065 0.348274   
     length 2.42265  
     axis 0 0 0  XYZ 
  end
  begin
     id 7 
     name rfemur
     direction -0.34202 -0.939693 0   
     length 6.73814   
     axis 0 0 -20   XYZ
    dof rx ry rz
    limits (-160.0 20.0)
           (-70.0 70.0)
           (-70.0 60.0)
  end
  begin
     id 8 
     name rtibia
     direction -0.34202 -0.939693 0   
     length 7.66799   
     axis 0 0 -20   XYZ
    dof rx
    limits (-10.0 170.0)
 end
 begin
     id 9 
     name rfoot
     direction -0.0727352 -0.199838 0.977125   
     length 2.57224  
     axis -90 -7.62852e-016 -20   XYZ
    dof rx rz
    limits (-45.0 90.0)
           (-20.0 70.0)
  end
  begin
     id 10 
     name rtoes
     direction -1.53501e-011 -4.21858e-011 1   
     length 1.28858   
     axis -90 -7.62852e-016 -20   XYZ
    dof rx
    limits (-90.0 20.0)
  end
  begin
     id 11 
     name lowerback
     direction -0.0172471 0.995767 -0.0902851   
     length 2.20206   
     axis 0 0 0   XYZ
    dof rx ry rz
    limits (-20.0 45.0)
           (-30.0 30.0)
           (-30.0 30.0)
  end
  begin
     id 12 
     name upperback
     direction -0.000110737 0.999714 0.0239043   
     length 2.19523   
     axis 0 0 0   XYZ
    dof rx ry rz
    limits (-20.0 45.0)
           (-30.0 30.0)
           (-30.0 30.0)
  end
  begin
     id 13 
     name thorax
     direction 0.00704869 0.997783 0.0661741   
     length 2.21977   
     axis 0 0 0   XYZ
    dof rx ry rz
    limits (-20.0 45.0)
           (-30.0 30.0)
           (-30.0 30.0)
  end
  begin
     id 14 
     name lowerneck
     direction -0.00407501 0.995527 0.0943846   
     length 1.83142   
     axis 0 0 0   XYZ
    dof rx ry rz
    limits (-20.0 45.0)
           (-30.0 30.0)
           (-30.0 30.0)
  end
  begin
     id 15 
     name upperneck
     direction 0.0640586 0.986486 -0.150807   
     length 1.84616   
     axis 0 0 0   XYZ
    dof rx ry rz
    limits (-20.0 45.0)
           (-30.0 30.0)
           (-30.0 30.0)
  end
  begin
     id 16
     name head
     direction 0.0188017 0.99791 -0.0618239  
     length 1.85932  
     axis 0 0 0   XYZ
    dof rx ry rz
    limits (-20.0 45.0)
           (-30.0 30.0)
           (-30.0 30.0)
  end
  begin
     id 17 
     name lclavicle
     direction 0.976074 0.206905 0.066852  
     length 3.81043  
     axis 0 0 0   XYZ
    dof ry rz
    limits (-20.0 10.0)
           (0.0 20.0)
  end
  begin
     id 18 
     name lhumerus
     direction 1 -4.48971e-011 1.86916e-027   
     length 5.37587   
     axis 180 -30 -90   XYZ
    dof rx ry rz
    limits (-60.0 90.0)
           (-90.0 90.0)
           (-90.0 90.0)
  end
  begin
     id 19
     name lradius
     direction 1 -4.48968e-011 1.69187e-027   
     length 3.35977   
     axis 180 -30 -90   XYZ
    dof rx
    limits (-10.0 170.0)
  end
  begin
     id 20
     name lwrist
     direction 1 -4.48968e-011 5.8978e-027   
     length 1.67988   
     axis -3.27506e-015 90 90   XYZ
    dof ry
    limits (-180.0 0.0)
 end
  begin
     id 21 
     name lhand
     direction 1 -4.49028e-011 1.18071e-026   
     length 0.561859   
     axis -7.52654e-015 90 90   XYZ
    dof rx rz
    limits (-90.0 90.0)
           (-45.0 45.0)
  end
  begin
     id 22 
     name lfingers
     direction 1 -4.48927e-011 2.35758e-026   
     length 0.452985   
     axis -1.50534e-014 90 90   XYZ
    dof rx
    limits (0.0 90.0)
  end
  begin
     id 23
     name lthumb
     direction 0.707107 -6.34898e-011 0.707107   
     length 0.650399   
     axis -90 45 5.69224e-014   XYZ
    dof rx rz
    limits (-45.0 45.0)
           (-45.0 45.0)
  end
  begin
     id 24 
     name rclavicle
     direction -0.988403 0.151789 0.00439714   
     length 3.6942  
     axis 0 0 0   XYZ 
    dof ry rz
    limits (-10.0 20.0)
           (-20.0 0.0)
  end
  begin
     id 25 
     name rhumerus
     direction -1 -4.48978e-011 1.62495e-027  
     length 5.22819   
     axis 180 30 90   XYZ
    dof rx ry rz
    limits (-90.0 60.0)
           (-90.0 90.0)
           (-90.0 90.0)
  end
  begin
     id 26 
     name rradius
     direction -1 -4.48961e-011 3.47796e-027   
     length 3.40764   
     axis 180 30 90   XYZ
    dof rx
    limits (-10.0 170.0)
  end
  begin
     id 27 
     name rwrist
     direction -1 -4.48949e-011 5.89602e-027   
     length 1.70382   
     axis -3.27506e-015 -90 -90   XYZ
    dof ry
    limits (-180.0 0.0)
  end
  begin
     id 28
     name rhand
     direction -1 -4.48977e-011 1.17973e-026   
     length 0.583255   
     axis -7.52654e-015 -90 -90   XYZ
    dof rx rz
    limits (-90.0 90.0)
           (-45.0 45.0)
  end
  begin
     id 29
     name rfingers
     direction -1 -4.49099e-011 2.36408e-026   
     length 0.470235   
     axis -1.50534e-014 -90 -90   XYZ
    dof rx
    limits (0.0 90.0)
  end
  begin
     id 30
     name rthumb
     direction -0.707107 -6.35011e-011 0.707107   
     length 0.675167   
     axis -90 -45 -5.69224e-014   XYZ
    dof rx rz
    limits (-45.0 45.0)
           (-45.0 45.0)
  end
:hierarchy
  begin
    root lhipjoint rhipjoint lowerback
    lhipjoint lfemur
    lfemur ltibia
    ltibia lfoot
    lfoot ltoes
    rhipjoint rfemur
    rfemur rtibia
    rtibia rfoot
    rfoot rtoes
    lowerback upperback
    upperback thorax
    thorax lowerneck lclavicle rclavicle
    lowerneck upperneck
    upperneck head
    lclavicle lhumerus
    lhumerus lradius
    lradius lwrist
    lwrist lhand lthumb
    lhand lfingers
    rclavicle rhumerus
    rhumerus rradius
    rradius rwrist
    rwrist rhand rthumb
    rhand rfingers
  end

#!OML:ASF G:\JayActor3\Patient Classification 1\Patient 1\Session 2\male.ASF
:FULLY-SPECIFIED
:DEGREES
144
root 47.5278 16.4994 -7.68069 -186.665 -87.5946 187.741
lowerback -0.331198 -1.26976 -3.23931
upperback 4.57752 -1.67582 -0.0431418
thorax 5.00935 -0.999483 1.68581
lowerneck -12.6078 -0.466431 -1.17978
upperneck 16.2572 -1.31944 4.28617
head 7.09133 -0.377107 1.44974
rclavicle -1.60022e-014 1.07344e-014
rhumerus -31.9652 8.79892 -90.0972
rradius 35.5088
rwrist -8.95707
rhand -22.994 5.11522
rfingers 7.12502
rthumb 3.44886 -24.8366
lclavicle -1.60022e-014 1.07344e-014
lhumerus -16.4493 -44.0843 92.0959
lradius 78.7592
lwrist 22.2025
lhand -20.848 14.9905
lfingers 7.12502
lthumb 5.52114 44.8986
rfemur -13.5749 2.23885 19.752
rtibia 37.8967
rfoot -27.1999 1.14968
rtoes 14.2608
lfemur -13.9437 6.10776 -18.7031
ltibia 33.3876
lfoot -17.709 8.73652
ltoes -13.1134
145
root 47.5385 16.4965 -7.70632 -191.582 -87.8824 192.837
lowerback -0.290723 -1.27158 -3.07241
upperback 4.57474 -1.68658 0.013965
thorax 4.97991 -0.998624 1.65217
lowerneck -12.6504 -0.442306 -1.0531
upperneck 16.2999 -1.31019 4.26342
head 7.11175 -0.366129 1.42255
rclavicle -1.21259e-014 4.37326e-015
rhumerus -31.9119 9.38006 -90.3592
rradius 35.8821
rwrist -8.99926
rhand -23.1438 5.23596
rfingers 7.12502
rthumb 3.30422 -24.7182
lclavicle -1.21259e-014 4.37326e-015
lhumerus -17.3186 -43.5049 92.7999
lradius 75.3856
lwrist 21.6278
lhand -21.2836 15.8775
lfingers 7.12502
lthumb 5.10055 45.7961
rfemur -13.687 1.77645 19.9501
rtibia 37.7631
rfoot -27.4077 1.58215
rtoes 13.9343
lfemur -14.5942 6.13366 -18.5108
ltibia 34.0707
lfoot -17.9722 8.68111
ltoes -14.0898
146
root 47.5488 16.4928 -7.73021 -198.547 -88.1348 199.974
lowerback -0.243745 -1.27132 -2.87415
upperback 4.58144 -1.69587 0.0740404
thorax 4.95565 -0.996201 1.60412
lowerneck -12.7003 -0.425859 -0.929928
upperneck 16.3316 -1.31158 4.24835
head 7.1303 -0.359664 1.39734
rclavicle 1.70458e-014 -9.14409e-015
rhumerus -31.8399 9.9762 -90.6206
rradius 36.2683
rwrist -9.04768
rhand -23.2221 5.34932
rfingers 7.12502
rthumb 3.22862 -24.606
lclavicle 1.70458e-014 -9.14409e-015
lhumerus -18.0621 -42.8375 93.4499
lradius 71.9755
lwrist 21.0851
lhand -21.7314 16.8397
lfingers 7.12502
lthumb 4.66817 46.7682
rfemur -13.789 1.31938 20.1678
rtibia 37.6322
rfoot -27.645 2.02037
rtoes 13.5214
lfemur -15.2659 6.20607 -18.3107
ltibia 34.8194
lfoot -18.2157 8.61472
ltoes -15.1281
147
root 47.5582 16.4888 -7.75245 -207.904 -88.3347 209.494
lowerback -0.194507 -1.27072 -2.6518
upperback 4.59584 -1.70562 0.137366
thorax 4.93751 -0.993411 1.54585
lowerneck -12.7356 -0.410925 -0.811461
upperneck 16.3286 -1.31362 4.24075
head 7.13515 -0.353457 1.37507
rclavicle 2.13694e-014 0
rhumerus -31.7461 10.5813 -90.8748
rradius 36.658
rwrist -9.1216
rhand -23.2038 5.48421
rfingers 7.12502
rthumb 3.24631 -24.4708
lclavicle 2.13694e-014 0
lhumerus -18.691 -42.0507 94.044
lradius 68.5521
lwrist 20.6015
lhand -22.1161 17.9352
lfingers 7.12502
lthumb 4.29664 47.8716
rfemur -13.878 0.871026 20.402
rtibia 37.5014
rfoot -27.9145 2.45658
rtoes 13.0242
lfemur -15.9455 6.3238 -18.1094
ltibia 35.6256
lfoot -18.4213 8.51124
ltoes -16.1917
148
root 47.5668 16.4846 -7.77312 -219.559 -88.4621 221.289
lowerback -0.129057 -1.27035 -2.41117
upperback 4.62205 -1.71691 0.201728
thorax 4.92202 -0.991081 1.47853
lowerneck -12.7523 -0.397751 -0.694357
upperneck 16.2891 -1.31671 4.23813
head 7.12496 -0.347851 1.35433
rclavicle 9.29318e-015 -9.54166e-015
rhumerus -31.635 11.204 -91.1264
rradius 37.0623
rwrist -9.22648
rhand -23.1279 5.56331
rfingers 7.12502
rthumb 3.3196 -24.3906
lclavicle 9.29318e-015 -9.54166e-015
lhumerus -19.2107 -41.141 94.5738
lradius 65.1336
lwrist 20.1944
lhand -22.4457 19.1428
lfingers 7.12502
lthumb 3.97835 49.0854
rfemur -13.9384 0.437398 20.6501
rtibia 37.3703
rfoot -28.2062 2.8784
rtoes 12.4698
lfemur -16.6065 6.48829 -17.913
ltibia 36.4854
lfoot -18.5859 8.3265
ltoes -17.2644
149
root 47.5747 16.4806 -7.79198 -231.615 -88.4875 233.473
lowerback -0.0562054 -1.26252 -2.15593
upperback 4.6569 -1.71873 0.262662
thorax 4.91041 -0.983667 1.39996
lowerneck -12.7571 -0.381139 -0.565406
upperneck 16.2139 -1.31413 4.22883
head 7.10083 -0.339766 1.32983
rclavicle -8.44835e-015 5.56597e-015
rhumerus -31.5063 11.8476 -91.3801
rradius 37.4687
rwrist -9.34318
rhand -23.0503 5.59067
rfingers 7.12502
rthumb 3.39449 -24.3621
lclavicle -8.44835e-015 5.56597e-015
lhumerus -19.6361 -40.0997 95.0351
lradius 61.7366
lwrist 19.8041
lhand -22.7381 20.4403
lfingers 7.12502
lthumb 3.69597 50.388
rfemur -13.9902 0.0188467 20.8992
rtibia 37.2415
rfoot -28.4955 3.30103
rtoes 11.88
lfemur -17.2461 6.71105 -17.7362
ltibia 37.3968
lfoot -18.726 8.03522
ltoes -18.2724
150
root 47.5818 16.4767 -7.80943 -242.44 -88.4273 244.401
lowerback 0.0387063 -1.24947 -1.89639
upperback 4.70163 -1.71425 0.321426
thorax 4.89622 -0.973196 1.31739
lowerneck -12.7539 -0.360386 -0.428961
upperneck 16.1182 -1.30501 4.21329
head 7.06848 -0.328938 1.30261
rclavicle -1.71949e-014 8.34896e-015
rhumerus -31.364 12.5143 -91.6319
rradius 37.8761
rwrist -9.4744
rhand -22.969 5.54779
rfingers 7.12502
rthumb 3.47304 -24.4037
lclavicle -1.71949e-014 8.34896e-015
lhumerus -19.9758 -38.909 95.4233
lradius 58.3608
lwrist 19.3765
lhand -22.9963 21.75
lfingers 7.12502
lthumb 3.44669 51.7019
rfemur -14.0215 -0.385227 21.1479
rtibia 37.1198
rfoot -28.7638 3.72358
rtoes 11.31
lfemur -17.8409 6.98354 -17.5821
ltibia 38.3579
lfoot -18.8311 7.64062
ltoes -19.1963
151
root 47.588 16.473 -7.8256 -250.904 -88.308 252.938
lowerback 0.159338 -1.23059 -1.64229
upperback 4.75731 -1.70234 0.377134
thorax 4.87884 -0.959514 1.23544
lowerneck -12.7483 -0.330922 -0.280569
upperneck 16.0041 -1.28339 4.18781
head 7.02938 -0.312483 1.27134
rclavicle -8.59744e-015 -1.19271e-014
rhumerus -31.2019 13.2022 -91.8804
rradius 38.2731
rwrist -9.59357
rhand -22.903 5.43195
rfingers 7.12502
rthumb 3.53673 -24.5185
lclavicle -8.59744e-015 -1.19271e-014
lhumerus -20.2473 -37.5854 95.7462
lradius 54.9937
lwrist 18.9613
lhand -23.3978 22.8541
lfingers 7.12502
lthumb 3.05894 52.8119
rfemur -14.0315 -0.775411 21.3886
rtibia 37.0108
rfoot -29.0065 4.14446
rtoes 10.7654
lfemur -18.3771 7.29471 -17.4585
ltibia 39.3615
lfoot -18.922 7.17073
ltoes -19.9444
152
root 47.5936 16.4693 -7.84031 -256.611 -88.1569 258.695
lowerback 0.301478 -1.20229 -1.39609
upperback 4.82033 -1.67759 0.425871
thorax 4.85674 -0.939827 1.15159
lowerneck -12.7474 -0.297953 -0.129059
upperneck 15.8992 -1.2596 4.16931
head 6.99412 -0.294248 1.2421
rclavicle 8.29926e-015 -1.43125e-014
rhumerus -31.0217 13.9032 -92.1233
rradius 38.6596
rwrist -9.69456
rhand -22.8337 5.26191
rfingers 7.12502
rthumb 3.60371 -24.6874
lclavicle 8.29926e-015 -1.43125e-014
lhumerus -20.4398 -36.1028 95.9817
lradius 51.6399
lwrist 18.5387
lhand -23.8529 23.8345
lfingers 7.12502
lthumb 2.6194 53.7982
rfemur -14.0338 -1.14931 21.6123
rtibia 36.9193
rfoot -29.2118 4.57123
rtoes 10.272
lfemur -18.8547 7.63587 -17.374
ltibia 40.3935
lfoot -18.9929 6.69128
ltoes -20.5156
153
root 47.5981 16.4658 -7.85382 -259.821 -87.9996 261.947
lowerback 0.448622 -1.16258 -1.17015
upperback 4.88392 -1.6364 0.466768
thorax 4.8326 -0.912641 1.07162
lowerneck -12.7357 -0.259623 0.0304176
upperneck 15.7905 -1.22958 4.14869
head 6.95569 -0.273086 1.21144
rclavicle -3.08116e-015 1.19271e-015
rhumerus -30.8301 14.6171 -92.3637
rradius 39.0376
rwrist -9.75938
rhand -22.7701 5.02319
rfingers 7.12502
rthumb 3.66514 -24.925
lclavicle -3.08116e-015 1.19271e-015
lhumerus -20.5689 -34.4675 96.132
lradius 48.2761
lwrist 18.0486
lhand -24.3891 24.5849
lfingers 7.12502
lthumb 2.10155 54.5543
rfemur -14.0419 -1.50237 21.8118
rtibia 36.8493
rfoot -29.3856 5.00317
rtoes 9.78621
lfemur -19.274 8.00445 -17.3342
ltibia 41.4303
lfoot -19.0428 6.26047
ltoes -20.9037
154
root 47.6012 16.4625 -7.86619 -261.105 -87.8518 263.268
lowerback 0.594933 -1.11143 -0.971936
upperback 4.94797 -1.57851 0.500029
thorax 4.80994 -0.87814 0.999724
lowerneck -12.724 -0.223228 0.188537
upperneck 15.6978 -1.20444 4.13576
head 6.92265 -0.253765 1.18311
rclavicle -4.82053e-015 -3.97569e-016
rhumerus -30.6266 15.3362 -92.5957
rradius 39.4104
rwrist -9.79051
rhand -22.7197 4.76238
rfingers 7.12502
rthumb 3.71375 -25.185
lclavicle -4.82053e-015 -3.97569e-016
lhumerus -20.6242 -32.6937 96.1891
lradius 44.8862
lwrist 17.4576
lhand -25.0065 25.1321
lfingers 7.12502
lthumb 1.50526 55.1065
rfemur -14.0589 -1.82859 21.9829
rtibia 36.8026
rfoot -29.5374 5.44184
rtoes 9.30984
lfemur -19.6283 8.3918 -17.3402
ltibia 42.4403
lfoot -19.0718 5.92678
ltoes -21.14
155
root 47.6026 16.4592 -7.87749 -260.993 -87.7257 263.196
lowerback 0.730229 -1.05231 -0.812028
upperback 5.00626 -1.50809 0.525887
thorax 4.78849 -0.838667 0.941688
lowerneck -12.6744 -0.180353 0.324738
upperneck 15.5877 -1.17055 4.15375
head 6.87759 -0.229845 1.16908
rclavicle 2.78299e-015 9.14409e-015
rhumerus -30.4156 16.0546 -92.8183
rradius 39.7757
rwrist -9.79382
rhand -22.6994 4.53511
rfingers 7.12502
rthumb 3.7334 -25.4119
lclavicle 2.78299e-015 9.14409e-015
lhumerus -20.6296 -30.8014 96.1578
lradius 41.4751
lwrist 16.7295
lhand -25.6809 25.5115
lfingers 7.12502
lthumb 0.853979 55.4895
rfemur -14.0906 -2.13436 22.1176
rtibia 36.7776
rfoot -29.6765 5.88263
rtoes 8.8084
lfemur -19.913 8.78827 -17.3969
ltibia 43.3867
lfoot -19.0755 5.70685
ltoes -21.2817
156
root 47.6017 16.4562 -7.88769 -259.829 -87.63 262.079
lowerback 0.846195 -0.98891 -0.700532
upperback 5.06088 -1.43001 0.544001
thorax 4.77547 -0.797098 0.902422
lowerneck -12.615 -0.137405 0.437227
upperneck 15.4881 -1.13631 4.19382
head 6.83454 -0.205525 1.16612
rclavicle -1.14301e-015 2.38542e-015
rhumerus -30.1977 16.7627 -93.0261
rradius 40.1387
rwrist -9.78036
rhand -22.7001 4.37098
rfingers 7.12502
rthumb 3.73267 -25.5761
lclavicle -1.14301e-015 2.38542e-015
lhumerus -20.5925 -28.8167 96.0363
lradius 38.0625
lwrist 15.8551
lhand -26.3768 25.7433
lfingers 7.12502
lthumb 0.18179 55.723
rfemur -14.1333 -2.4236 22.2071
rtibia 36.7712
rfoot -29.8098 6.32296
rtoes 8.25721
lfemur -20.1192 9.18106 -17.5088
ltibia 44.2317
lfoot -19.0446 5.56887
ltoes -21.3327
157
root 47.5981 16.4534 -7.89682 -257.84 -87.5602 260.145
lowerback 0.93552 -0.926656 -0.634549
upperback 5.11299 -1.35178 0.555513
thorax 4.7762 -0.757102 0.881122
lowerneck -12.5676 -0.0873355 0.543538
upperneck 15.411 -1.09314 4.23775
head 6.80073 -0.176702 1.16636
rclavicle -3.23025e-015 -4.17448e-015
rhumerus -29.9702 17.4601 -93.2197
rradius 40.5011
rwrist -9.7706
rhand -22.714 4.29198
rfingers 7.12502
rthumb 3.71924 -25.6553
lclavicle -3.23025e-015 -4.17448e-015
lhumerus -20.5388 -26.7861 95.8304
lradius 34.6786
lwrist 14.8254
lhand -27.0639 25.9179
lfingers 7.12502
lthumb -0.481758 55.8971
rfemur -14.1855 -2.69722 22.2553
rtibia 36.7794
rfoot -29.9532 6.74783
rtoes 7.58898
lfemur -20.2393 9.56003 -17.6677
ltibia 44.9419
lfoot -18.9864 5.46599
ltoes -21.2716
